<svg xmlns="http://www.w3.org/2000/svg" xmlns:xlink="http://www.w3.org/1999/xlink" width="5000" zoomAndPan="magnify" viewBox="0 0 3750 3749.999967" height="5000" preserveAspectRatio="xMidYMid meet" version="1.0"><defs><g/><clipPath id="ebae3cb0c1"><rect x="0" width="1998" y="0" height="3748"/></clipPath></defs><rect x="-375" width="4500" fill="#ffffff" y="-374.999997" height="4499.99996" fill-opacity="1"/><rect x="-375" width="4500" fill="#000000" y="-374.999997" height="4499.99996" fill-opacity="1"/><g transform="matrix(1, 0, 0, 1, 879, 1)"><g clip-path="url(#ebae3cb0c1)"><g fill="#ffffff" fill-opacity="1"><g transform="translate(0.284679, 2900.500554)"><g><path d="M 165.6875 0 L 165.6875 -2063.28125 L 615.859375 -2063.28125 L 615.859375 -1153.5625 C 724.234375 -1188.988281 822.1875 -1238.484375 909.71875 -1302.046875 C 997.25 -1365.617188 1073.835938 -1438.566406 1139.484375 -1520.890625 C 1205.140625 -1603.210938 1259.332031 -1690.742188 1302.0625 -1783.484375 C 1344.789062 -1876.234375 1376.570312 -1969.5 1397.40625 -2063.28125 L 1903.84375 -2063.28125 C 1878.832031 -1950.738281 1840.273438 -1841.84375 1788.171875 -1736.59375 C 1736.066406 -1631.34375 1672.503906 -1533.910156 1597.484375 -1444.296875 C 1522.460938 -1354.679688 1437.535156 -1276.003906 1342.703125 -1208.265625 C 1247.867188 -1140.535156 1145.222656 -1086.867188 1034.765625 -1047.265625 L 1034.765625 -1016.015625 C 1159.816406 -1022.265625 1264.546875 -1011.320312 1348.953125 -983.1875 C 1433.359375 -955.050781 1502.648438 -915.453125 1556.828125 -864.390625 C 1611.015625 -813.328125 1654.78125 -754.96875 1688.125 -689.3125 C 1721.476562 -623.664062 1750.660156 -554.375 1775.671875 -481.4375 L 1935.109375 0 L 1431.796875 0 L 1328.640625 -381.40625 C 1307.796875 -460.601562 1280.175781 -531.457031 1245.78125 -593.96875 C 1211.394531 -656.488281 1160.332031 -705.984375 1092.59375 -742.453125 C 1024.863281 -778.929688 926.390625 -797.171875 797.171875 -797.171875 L 615.859375 -797.171875 L 615.859375 0 Z M 165.6875 0 "/></g></g></g></g></g></svg>